<?xml version="1.0" encoding="UTF-8"?>
<svg width="12px" height="14px" viewBox="0 0 12 14" version="1.1" xmlns="http://www.w3.org/2000/svg" xmlns:xlink="http://www.w3.org/1999/xlink">
    <!-- Generator: Sketch 51.2 (57519) - http://www.bohemiancoding.com/sketch -->
    <title>XMLID_27_</title>
    <desc>Created with Sketch.</desc>
    <defs></defs>
    <g id="Page-1" stroke="none" stroke-width="1" fill="none" fill-rule="evenodd">
        <g id="变量管理" transform="translate(-1272.000000, -336.000000)" fill="#999999">
            <path d="M1282.85714,338.285714 L1278.85714,338.285714 C1279.48571,338.285714 1280,337.771429 1280,337.142857 C1280,336.514286 1279.48571,336 1278.85714,336 L1276.57143,336 C1275.94286,336 1275.42857,336.514286 1275.42857,337.142857 C1275.42857,337.771429 1275.94286,338.285714 1276.57143,338.285714 L1272.57143,338.285714 C1272.22857,338.285714 1272,338.8 1272,339.428571 C1272,340.057143 1272.22857,340.571429 1272.57143,340.571429 L1282.85714,340.571429 C1283.2,340.571429 1283.42857,340.057143 1283.42857,339.428571 C1283.42857,338.8 1283.14286,338.285714 1282.85714,338.285714 L1282.85714,338.285714 Z M1281.14286,341.714286 L1274.28571,341.714286 C1273.65714,341.714286 1273.14286,342.228571 1273.14286,342.857143 L1273.14286,348.571429 C1273.14286,349.2 1273.65714,349.714286 1274.28571,349.714286 L1281.14286,349.714286 C1281.77143,349.714286 1282.28571,349.2 1282.28571,348.571429 L1282.28571,342.857143 C1282.28571,342.228571 1281.77143,341.714286 1281.14286,341.714286 L1281.14286,341.714286 Z" id="XMLID_27_"></path>
        </g>
    </g>
</svg>